<?xml version="1.0" encoding="UTF-8"?>
<svg width="162px" height="28px" viewBox="0 0 162 28" version="1.1" xmlns="http://www.w3.org/2000/svg" xmlns:xlink="http://www.w3.org/1999/xlink">
    <title>Logo@2x</title>
    <g id="Screens" stroke="none" stroke-width="1" fill="none" fill-rule="evenodd">
        <g id="Solutions---Cloud-Migration" transform="translate(-92.000000, -3327.000000)" fill="#FFFFFF">
            <g id="Footer" transform="translate(0.000000, 3224.000000)">
                <g id="Logo" transform="translate(92.000000, 103.000000)">
                    <path d="M109.948239,7.66884407 C111.929934,7.66884407 113.500561,8.09865763 114.678866,9.02657288 L114.000002,10.1861322 C113.05468,9.47245424 111.644731,9.0801322 110.019205,9.0801322 C107.876832,9.0801322 106.021002,10.2584373 106.021002,12.2039797 L106.021002,15.5420644 C106.021002,17.7379966 107.698747,18.7730305 110.037951,18.7730305 C111.572425,18.7730305 112.982375,18.4878271 114.036154,17.8451153 L114.625307,19.0408271 C113.339883,19.8629627 111.911188,20.1655729 109.965646,20.1655729 C106.770832,20.1655729 104.449036,18.577539 104.449036,15.6143695 L104.449036,12.1316746 C104.449036,9.40148814 106.967663,7.66884407 109.948239,7.66884407 Z M94.1659136,7.68758983 C96.2547271,7.68758983 97.8802525,8.25933559 99.2714559,9.31177627 L98.557778,10.436522 C97.3433203,9.57957288 95.9159644,9.04531864 94.1659136,9.04531864 C92.2565237,9.04531864 90.8278288,9.79381017 90.8278288,11.0792339 C90.8278288,12.3834034 91.8628627,12.8828441 94.6841,13.2390136 C97.9512186,13.6500814 99.3973203,14.5779966 99.3973203,16.7203695 C99.3973203,18.9872678 97.2375407,20.1307593 94.4337102,20.1307593 C92.2391169,20.1307593 90.1851169,19.3983356 88.8648797,18.1129119 L89.5959644,17.0243186 C90.810422,18.0780983 92.4520153,18.7917763 94.4524559,18.7917763 C96.5412695,18.7917763 97.7905407,18.1129119 97.7905407,16.7551831 C97.7905407,15.5233186 97.1839814,14.9167593 94.0413881,14.4882847 C90.7207102,14.0249966 89.2572017,13.1493017 89.2397949,11.0966407 C89.2210492,8.84714915 91.4705407,7.68758983 94.1659136,7.68758983 Z M125.303563,7.94641525 C128.65102,7.94641525 131.365139,10.6605339 131.365139,14.0079915 C131.365139,17.3554492 128.65102,20.0709068 125.303563,20.0709068 C121.956105,20.0709068 119.241986,17.3554492 119.241986,14.0079915 C119.241986,10.6605339 121.956105,7.94641525 125.303563,7.94641525 Z M160.773224,7.8478661 L160.773224,9.22300169 L153.561461,9.22300169 L153.561461,13.1328322 L159.827902,13.1328322 L159.827902,14.4530695 L153.561461,14.4530695 L153.561461,18.6306966 L161.201698,18.6306966 L161.201698,19.9870864 L152.008241,19.9870864 L152.008241,7.8478661 L160.773224,7.8478661 Z M83.6862288,7.8478661 L83.6862288,9.22300169 L76.4744661,9.22300169 L76.4744661,13.1328322 L82.7409068,13.1328322 L82.7409068,14.4530695 L76.4744661,14.4530695 L76.4744661,18.6306966 L84.1147034,18.6306966 L84.1147034,19.9870864 L74.9212458,19.9870864 L74.9212458,7.8478661 L83.6862288,7.8478661 Z M142.243171,7.8478661 C145.277307,7.8478661 146.849273,9.16944237 146.849273,11.3104763 L146.849273,12.1500186 C146.849273,14.2749847 145.20768,15.3809847 142.279324,15.3809847 L138.08429,15.3809847 L138.08429,19.9870864 L136.531069,19.9870864 L136.531069,7.8478661 L142.243171,7.8478661 Z M46.3747966,7.84880339 L46.3747966,9.2226 L39.1630339,9.2226 L39.1630339,13.0440576 L45.4281356,13.0440576 L45.4281356,14.3642949 L39.1804407,14.3642949 L39.1804407,19.9866847 L37.6272203,19.9866847 L37.6272203,7.84880339 L46.3747966,7.84880339 Z M53.0884576,7.848 L53.0884576,19.9858814 L51.5352373,19.9858814 L51.5352373,7.848 L53.0884576,7.848 Z M65.5843831,7.84880339 C68.0842644,7.84880339 69.7271966,9.0806678 69.7271966,11.1493966 L69.7271966,11.5792102 C69.7271966,13.2569559 68.512739,14.2571763 66.7988407,14.595939 L69.9936542,19.9866847 L68.2810949,19.9866847 L65.2991797,14.9360407 L60.8899085,14.9360407 L60.8899085,19.9866847 L59.3366881,19.9866847 L59.3366881,7.84880339 L65.5843831,7.84880339 Z M125.303563,9.33494068 C122.727359,9.33494068 120.630512,11.4317881 120.630512,14.0079915 C120.630512,16.5855339 122.727359,18.6823814 125.303563,18.6823814 C127.881105,18.6823814 129.977953,16.5855339 129.977953,14.0079915 C129.977953,11.4317881 127.881105,9.33494068 125.303563,9.33494068 Z M142.172205,9.22300169 L138.08429,9.22300169 L138.08429,14.095561 L142.172205,14.095561 C144.295832,14.095561 145.296053,13.4166966 145.296053,12.0080864 L145.296053,11.4363407 C145.296053,10.1161034 144.314578,9.22300169 142.172205,9.22300169 Z M65.4772644,9.2226 L60.8899085,9.2226 L60.8899085,13.6318712 L65.6031288,13.6318712 C66.8872136,13.5970576 68.1726373,12.9530068 68.1726373,11.6675831 L68.1726373,11.2217017 C68.1726373,10.0259898 67.1027898,9.2226 65.4772644,9.2226 Z" id="Logo-Text"></path>
                    <path d="M13.8425922,-3.01980663e-14 C13.6770563,0.000557359969 13.510127,0.00445887975 13.3434763,0.0108685194 L13.3434763,0.0108685194 C6.20480985,0.293728704 0.374545899,6.05906022 0.017835519,13.1943825 L0.017835519,13.1943825 C0.00640963964,13.420392 0.000557359969,13.6458441 3.55271368e-15,13.8696241 L3.55271368e-15,13.8696241 L3.55271368e-15,13.9476545 C0.0156060791,19.5744821 3.37314253,24.4157108 8.19179814,26.5913654 L8.19179814,26.5913654 C5.99552118,24.4455295 4.29836008,21.7437271 4.29836008,19.3345386 L4.29836008,19.3345386 C4.29836008,18.902306 4.3343098,18.4926464 4.39924223,18.1008223 L4.39924223,18.1008223 C3.76078639,16.6550306 3.44225517,15.0364572 3.5336622,13.3345586 L3.5336622,13.3345586 C3.81317823,8.14302914 7.98947647,3.89873298 13.1759897,3.54285864 L13.1759897,3.54285864 C19.2461971,3.12678942 24.2992226,7.92733084 24.2992226,13.908082 L24.2992226,13.908082 C24.2992226,17.0805749 22.8771186,19.9197666 20.6362528,21.825659 L20.6362528,21.825659 C17.8341256,23.9848715 14.9837867,24.2847312 13.8005115,23.4024304 L13.8005115,23.4024304 C13.2754784,23.0111637 13.5655843,22.33425 13.9086393,21.7766113 L13.9086393,21.7766113 L14.4799333,20.9433582 C16.3423516,18.6537234 16.6979473,15.2159271 14.5654881,13.454391 L14.5654881,13.454391 C15.2033865,16.5912129 11.2296887,19.537975 10.9178457,21.8591006 L10.9178457,21.8591006 C10.9128295,21.8961651 10.9094853,21.9332295 10.9053051,21.9705726 L10.9053051,21.9705726 L10.9050265,21.9705726 C9.76745477,21.8320687 9.10558981,20.610893 9.61557418,19.5845146 L9.61557418,19.5845146 C9.95835056,18.8942243 10.435172,18.1487553 11.076136,17.3489437 L11.076136,17.3489437 C13.8364612,13.9052952 13.0193715,8.586409 10.8072098,6.62143643 L10.8072098,6.62143643 C11.2430653,7.86880804 11.2486389,8.9567747 11.0045152,9.89620493 L11.0045152,9.89620493 C10.1595575,13.1461709 7.0617508,13.9629819 6.28005345,17.6036573 L6.28005345,17.6036573 C5.86927915,19.517074 6.34526456,21.7663002 7.77517156,23.3071218 L7.77517156,23.3071218 C9.40433475,25.6680986 12.115055,27.6213667 15.3591687,27.6258255 L15.3591687,27.6258255 L15.3825778,27.6258255 C16.1492264,27.6247108 16.9456938,27.5146322 17.7644556,27.2755248 L17.7644556,27.2755248 C23.5637861,25.5808718 27.817,20.2519531 27.817,13.908082 L27.817,13.908082 C27.817,6.24800525 21.6241734,0.0337202781 13.971621,-3.01980663e-14 L13.971621,-3.01980663e-14 L13.8425922,-3.01980663e-14 Z" id="Logo-Mark"></path>
                </g>
            </g>
        </g>
    </g>
</svg>